<svg fill="#383C42" xmlns="http://www.w3.org/2000/svg"  viewBox="0 0 48 48" width="24px" height="24px"><path d="M 20 3 C 18.317812 3 16.865118 3.7208507 15.654297 4.7167969 C 14.849025 4.3040694 13.974301 4 13 4 C 9.7041348 4 7 6.7041348 7 10 C 7 12.2043 8.2128076 14.138654 10 15.181641 L 10 36.5 C 10 40.624501 13.375499 44 17.5 44 L 30.5 44 C 34.624501 44 38 40.624501 38 36.5 L 38 36 L 38.5 36 C 42.624501 36 46 32.624501 46 28.5 L 46 22.5 C 46 20.032499 43.967501 18 41.5 18 L 38 18 L 38 15.181641 C 39.787192 14.138654 41 12.2043 41 10 C 41 6.7041348 38.295865 4 35 4 C 33.650355 4 32.497521 4.5649142 31.5 5.3203125 C 30.502479 4.5649142 29.349645 4 28 4 C 26.758319 4 25.68159 4.4832743 24.728516 5.1328125 C 23.467179 3.9070175 21.889449 3 20 3 z M 20 6 C 21.426953 6 22.656899 6.7376376 23.369141 7.8515625 A 1.50015 1.50015 0 0 0 25.759766 8.0332031 C 26.321231 7.394153 27.100071 7 28 7 C 28.948723 7 29.769053 7.4401934 30.330078 8.140625 A 1.50015 1.50015 0 0 0 32.669922 8.140625 C 33.230947 7.4401934 34.051277 7 35 7 C 36.674135 7 38 8.3258652 38 10 C 38 11.674135 36.674135 13 35 13 C 34.051277 13 33.230947 12.559807 32.669922 11.859375 A 1.50015 1.50015 0 0 0 31.208984 11.326172 C 31.208984 11.326172 30.915733 11.401152 30.736328 11.494141 C 30.556924 11.587131 30.366045 11.72267 30.1875 11.900391 C 29.83041 12.255833 29.535101 12.764178 29.332031 13.439453 C 28.925892 14.790003 28.810753 16.853789 29.376953 20.580078 C 29.644745 22.344025 30 23.252642 30 25 C 30 26.122343 29.122343 27 28 27 C 26.877657 27 26 26.122343 26 25 C 26 23.208466 26.308386 22.328565 26.578125 20.603516 C 27.16487 16.848346 27.099134 14.846807 26.738281 13.53125 C 26.557855 12.873472 26.280113 12.362071 25.894531 11.998047 C 25.70174 11.816035 25.486302 11.679883 25.28125 11.59375 C 25.076198 11.50762 24.742187 11.460937 24.742188 11.460938 A 1.50015 1.50015 0 0 0 23.369141 12.148438 C 22.655768 13.26299 21.426953 14 20 14 C 18.754796 14 17.661595 13.441716 16.925781 12.558594 A 1.50015 1.50015 0 0 0 14.84375 12.341797 C 14.317237 12.758333 13.694586 13 13 13 C 11.325865 13 10 11.674135 10 10 C 10 8.3258652 11.325865 7 13 7 C 13.694586 7 14.316906 7.2420929 14.84375 7.6582031 A 1.50015 1.50015 0 0 0 16.925781 7.4414062 C 17.661587 6.559023 18.754796 6 20 6 z M 32.111328 15.173828 C 32.975221 15.665189 33.93551 16 35 16 L 35 19.5 L 35 21 L 32.507812 21 C 32.451615 20.714596 32.38879 20.425584 32.34375 20.128906 C 31.939362 17.467548 31.994065 16.073694 32.111328 15.173828 z M 15.654297 15.28125 C 16.865279 16.278054 18.317624 17 20 17 C 21.504872 17 22.808434 16.412355 23.953125 15.597656 C 23.998945 16.54181 23.970055 17.855311 23.613281 20.138672 C 23.566938 20.435052 23.512252 20.717491 23.458984 21 L 18 21 C 16.895 21 16 21.895 16 23 L 16 36.5 C 16 37.328 15.328 38 14.5 38 C 13.672 38 13 37.328 13 36.5 L 13 21 L 13 16 C 13.974197 16 14.848797 15.694468 15.654297 15.28125 z M 38 21 L 41.5 21 C 42.346499 21 43 21.653501 43 22.5 L 43 28.5 C 43 31.003499 41.003499 33 38.5 33 L 38 33 L 38 21 z"/></svg>
