<svg fill="#383C42" xmlns="http://www.w3.org/2000/svg"  viewBox="0 0 48 48" width="24px" height="24px"><path d="M 9 5 C 7.895 5 7 5.895 7 7 L 7 30 C 7 31.105 7.895 32 9 32 L 12 32 C 13.105 32 14 31.105 14 30 L 14 7 C 14 5.895 13.105 5 12 5 L 9 5 z M 27 7 C 25.895 7 25 7.895 25 9 L 25 30 C 25 31.105 25.895 32 27 32 L 30 32 C 31.105 32 32 31.105 32 30 L 32 9 C 32 7.895 31.105 7 30 7 L 27 7 z M 18 11 C 16.895 11 16 11.895 16 13 L 16 30 C 16 31.105 16.895 32 18 32 L 21 32 C 22.105 32 23 31.105 23 30 L 23 13 C 23 11.895 22.105 11 21 11 L 18 11 z M 35.449219 13.802734 C 35.189781 13.787172 34.922609 13.821813 34.662109 13.914062 L 34 14.148438 L 34 27.03125 L 35.285156 30.666016 C 35.653156 31.707016 36.797844 32.253766 37.839844 31.884766 L 40.667969 30.882812 C 41.708969 30.515813 42.252766 29.372078 41.884766 28.330078 L 37.214844 15.132812 C 36.938844 14.352062 36.227531 13.849422 35.449219 13.802734 z M 6 33.5 C 4.343 33.5 3 34.843 3 36.5 L 3 37.5 C 3 39.157 4.343 40.5 6 40.5 L 11 40.5 L 11 43.5 A 1.50015 1.50015 0 1 0 14 43.5 L 14 40.5 L 34 40.5 L 34 43.5 A 1.50015 1.50015 0 1 0 37 43.5 L 37 40.5 L 42 40.5 C 43.657 40.5 45 39.157 45 37.5 L 45 36.5 C 45 34.843 43.657 33.5 42 33.5 L 6 33.5 z"/></svg>
