<?xml version="1.0" encoding="UTF-8"?>
<svg xmlns="http://www.w3.org/2000/svg" xmlns:xlink="http://www.w3.org/1999/xlink" viewBox="0 0 24 24" width="24px" height="24px">
<g id="surface7425473">
<path style=" stroke:none;fill-rule:nonzero;fill:#383C42;fill-opacity:1;" d="M 12 1.5 C 10.480469 1.5 9.25 2.730469 9.25 4.25 C 9.25 5.769531 10.480469 7 12 7 C 13.519531 7 14.75 5.769531 14.75 4.25 C 14.75 2.730469 13.519531 1.5 12 1.5 Z M 12 8 C 9.148438 8 7 9.429688 7 11.328125 L 7 11.5 L 5.25 11.5 C 5.019531 11.5 4.800781 11.605469 4.660156 11.789062 C 4.515625 11.96875 4.464844 12.207031 4.523438 12.429688 L 5.164062 15 L 4.25 15 C 3.835938 15 3.5 15.335938 3.5 15.75 L 3.5 16.902344 L 2.5 16.902344 L 2.5 16.652344 C 2.503906 16.449219 2.421875 16.253906 2.28125 16.109375 C 2.136719 15.964844 1.941406 15.886719 1.738281 15.890625 C 1.324219 15.898438 0.992188 16.238281 1 16.652344 L 1 18.652344 C 0.996094 18.921875 1.136719 19.171875 1.371094 19.308594 C 1.605469 19.445312 1.894531 19.445312 2.128906 19.308594 C 2.363281 19.171875 2.503906 18.921875 2.5 18.652344 L 2.5 18.402344 L 3.5 18.402344 L 3.5 20.25 C 3.5 21.492188 4.507812 22.5 5.75 22.5 L 18.75 22.5 C 19.992188 22.5 21 21.492188 21 20.25 L 21 15.75 C 21 15.335938 20.664062 15 20.25 15 L 19.335938 15 L 19.976562 12.429688 C 20.035156 12.207031 19.984375 11.96875 19.839844 11.789062 C 19.699219 11.605469 19.480469 11.5 19.25 11.5 L 17 11.5 L 17 11.328125 C 17 9.429688 14.851562 8 12 8 Z M 6.210938 13 L 18.289062 13 L 17.789062 15 L 6.710938 15 Z M 6.210938 13 "/>
</g>
</svg>
